<svg id="Layer_1" enable-background="new 0 0 512 512" height="512" viewBox="0 0 512 512" width="512" xmlns="http://www.w3.org/2000/svg"><g><path d="m218.7 211.48c1.648 1.03 3.48 1.521 5.291 1.521 3.333 0 6.592-1.667 8.489-4.702 2.927-4.683 1.503-10.853-3.18-13.78l-80-50c-4.683-2.928-10.853-1.504-13.78 3.18-2.927 4.683-1.503 10.853 3.18 13.78z"/><path d="m288.009 213.001c1.81 0 3.643-.492 5.291-1.521l80-50c4.684-2.927 6.107-9.097 3.18-13.78-2.927-4.685-9.098-6.107-13.78-3.18l-80 50c-4.684 2.927-6.107 9.097-3.18 13.78 1.897 3.035 5.156 4.701 8.489 4.701z"/><path d="m182.984 399.731c21.472 13.914 46.72 21.269 73.016 21.269s51.544-7.355 73.016-21.269c21.126-13.69 37.115-32.688 46.236-54.938 2.095-5.11-.349-10.951-5.459-13.046-5.111-2.097-10.951.349-13.046 5.459-15.643 38.157-56.13 63.794-100.747 63.794s-85.104-25.637-100.748-63.793c-2.095-5.109-7.933-7.555-13.046-5.459-5.11 2.095-7.554 7.936-5.459 13.046 9.123 22.249 25.111 41.247 46.237 54.937z"/><path d="m164 280c19.299 0 35-15.701 35-35s-15.701-35-35-35-35 15.701-35 35 15.701 35 35 35zm0-50c8.271 0 15 6.729 15 15s-6.729 15-15 15-15-6.729-15-15 6.729-15 15-15z"/><path d="m348 210c-19.299 0-35 15.701-35 35s15.701 35 35 35 35-15.701 35-35-15.701-35-35-35zm0 50c-8.271 0-15-6.729-15-15s6.729-15 15-15 15 6.729 15 15-6.729 15-15 15z"/><circle cx="440.321" cy="418.916" r="10"/><path d="m484.055 139.939c12.757-10.616 27.945-30.571 27.945-65.439 0-56.851-43.242-73.229-45.083-73.898-3.065-1.114-6.482-.664-9.154 1.208-2.672 1.871-4.263 4.928-4.263 8.19 0 28.398-19.123 43.119-32.815 50.021-45.828-38.348-104.651-60.021-164.684-60.021-60.041 0-118.856 21.695-164.677 60.021-13.702-6.905-32.824-21.623-32.824-50.021 0-3.262-1.591-6.319-4.263-8.19-2.671-1.872-6.087-2.322-9.154-1.208-1.841.669-45.083 17.047-45.083 73.898 0 34.865 15.184 54.816 27.94 65.432-18.134 35.782-27.94 75.722-27.94 116.056 0 64.981 25.461 128.943 70.176 176.126 47.962 50.609 116.151 79.886 185.844 79.886 29.11 0 57.67-4.85 84.9-14.421 26.33-9.261 50.84-22.712 72.87-39.982 2.1-1.65 3.44-4.02 3.76-6.671.32-2.65-.41-5.27-2.06-7.37-1.9-2.43-4.78-3.83-7.87-3.83-2.26 0-4.39.74-6.16 2.13-41.87 32.801-92.16 50.143-145.46 50.143-63.02 0-122.29-24.552-166.88-69.124-44.57-44.591-69.12-103.864-69.12-166.887s24.55-122.296 69.12-166.888c44.59-44.573 103.86-69.124 166.88-69.124s122.29 24.551 166.88 69.124c44.57 44.592 69.11 103.855 69.12 166.888 0 42.932-11.64 84.964-33.66 121.546-2.84 4.72-1.32 10.88 3.41 13.731 1.56.93 3.34 1.43 5.15 1.43 3.54 0 6.75-1.81 8.57-4.84 11.74-19.491 20.81-40.452 26.96-62.303 6.35-22.541 9.57-45.943 9.57-69.563 0-17.366-1.816-34.654-5.33-51.566-4.651-22.386-12.286-44.107-22.615-64.484zm-415.34-58.522c-11.639 12.488-21.926 26.13-30.782 40.623-8.593-8.342-17.933-23.038-17.933-47.54 0-25.579 11.129-40.164 20.267-47.827 3.821 17.361 13.788 32.173 29.378 43.434 2.063 1.49 4.121 2.826 6.146 4.052-2.4 2.373-4.769 4.782-7.076 7.258zm405.363 40.618c-9.316-15.245-20.232-29.542-32.62-42.559-1.716-1.803-3.464-3.571-5.229-5.318 2.018-1.224 4.072-2.566 6.127-4.05 15.586-11.257 25.551-26.063 29.375-43.417 9.119 7.667 20.269 22.266 20.269 47.809 0 24.502-9.341 39.198-17.922 47.535z"/></g></svg>